<svg width="202" height="202" viewBox="0 0 202 202" fill="none" xmlns="http://www.w3.org/2000/svg">
	<rect x="37" y="39" width="127" height="126" rx="10" stroke="white" stroke-width="11"/>
	<path fill-rule="evenodd" clip-rule="evenodd" d="M16.1907 0.690674C7.63026 0.690674 0.690674 7.63027 0.690674 16.1907V122.589C0.690674 131.149 7.63027 138.089 16.1907 138.089H37.3851V127.089H16.1907C13.7054 127.089 11.6907 125.074 11.6907 122.589V16.1907C11.6907 13.7054 13.7054 11.6907 16.1907 11.6907H122.589C125.074 11.6907 127.089 13.7054 127.089 16.1907V38.6004H138.089V16.1907C138.089 7.63026 131.149 0.690674 122.589 0.690674H16.1907Z" fill="white"/>
	<path fill-rule="evenodd" clip-rule="evenodd" d="M63.6871 164.796V185.585C63.6871 194.146 70.6267 201.085 79.1871 201.085H185.585C194.146 201.085 201.085 194.146 201.085 185.585V79.1871C201.085 70.6267 194.146 63.6871 185.585 63.6871H163.581V74.6871H185.585C188.07 74.6871 190.085 76.7019 190.085 79.1871V185.585C190.085 188.07 188.07 190.085 185.585 190.085H79.1871C76.7019 190.085 74.6871 188.07 74.6871 185.585V164.796H63.6871Z" fill="white"/>
	</svg>
	